<svg width="663pt" height="607pt" viewBox="0 0 663 607" version="1.1" xmlns="http://www.w3.org/2000/svg">
<g id="#384a4aff">
<path fill="#384a4a" opacity="1.00" d=" M 74.43 32.40 C 100.28 12.59 132.60 1.93 165.04 0.87 C 177.69 0.33 190.37 0.40 203.02 0.97 C 227.55 2.66 251.83 9.56 273.19 21.83 C 283.11 28.14 293.83 33.45 302.40 41.65 C 315.40 53.76 327.02 67.33 337.13 81.94 C 350.14 101.32 357.43 123.98 361.00 146.91 C 361.54 149.06 361.33 152.37 364.07 152.97 C 373.26 156.23 382.12 160.97 389.07 167.92 C 401.46 179.60 403.23 199.30 396.31 214.30 C 392.20 223.48 383.84 230.88 373.92 233.00 C 366.33 234.21 358.64 233.07 351.02 233.05 C 326.01 232.79 301.00 233.01 275.99 232.85 C 272.71 232.85 269.41 232.48 266.16 233.01 C 264.51 233.80 263.45 235.47 262.62 237.04 C 263.16 240.04 265.97 241.94 267.97 244.03 C 277.35 252.34 285.45 261.92 294.18 270.87 C 302.18 279.52 310.40 287.96 318.31 296.69 C 330.70 308.99 342.49 321.87 354.65 334.39 C 358.29 338.01 361.41 342.24 365.76 345.07 C 366.82 344.03 367.89 343.00 368.95 341.96 C 394.67 315.03 422.09 289.74 447.24 262.26 C 454.42 254.43 463.90 247.44 475.02 247.73 C 527.34 247.77 579.66 247.72 631.98 247.72 C 642.61 247.47 653.55 252.96 658.52 262.58 C 661.44 267.88 662.48 274.00 662.31 280.00 C 662.21 354.33 662.28 428.67 662.26 503.00 C 662.39 519.17 662.08 535.39 663.00 551.53 L 663.00 584.48 C 660.60 591.75 656.40 598.71 649.66 602.70 C 646.76 604.50 643.53 605.67 640.41 607.00 L 508.52 607.00 C 502.25 604.78 495.92 601.62 492.05 595.99 C 489.15 591.94 487.07 587.11 487.07 582.06 C 487.06 553.05 487.13 524.03 487.04 495.01 C 486.95 482.54 487.52 470.05 485.79 457.67 C 483.16 458.46 480.78 459.91 478.89 461.90 C 466.41 475.08 453.00 487.34 439.78 499.78 C 420.01 519.34 400.37 539.05 380.97 558.99 C 377.23 562.89 373.55 566.87 369.54 570.50 C 361.99 577.66 349.82 579.07 340.62 574.39 C 337.58 572.94 334.93 570.83 332.43 568.62 C 303.57 541.14 274.88 513.47 246.74 485.25 C 235.98 474.23 224.95 463.45 212.86 453.89 C 212.57 454.07 211.99 454.45 211.70 454.63 C 210.80 464.73 211.77 474.88 211.98 484.99 C 211.97 496.99 212.54 508.99 212.96 520.99 C 213.16 538.01 212.62 555.06 213.59 572.07 C 213.70 575.69 214.11 579.33 213.78 582.96 C 212.38 591.79 205.97 599.23 198.08 603.13 C 193.60 605.63 188.46 606.33 183.46 607.00 L 55.54 607.00 C 44.44 603.15 33.78 593.47 33.74 581.00 C 33.61 562.00 33.68 543.00 33.67 524.00 C 33.93 515.65 32.61 507.34 33.15 498.99 C 33.13 422.97 33.29 346.96 32.95 270.94 C 31.49 258.46 33.08 245.82 31.56 233.36 C 25.66 233.55 19.47 233.68 14.07 230.91 C 6.74 227.51 1.46 220.11 1.01 211.99 C 0.56 190.24 2.51 168.55 4.10 146.89 C 5.32 130.33 10.85 114.50 17.35 99.35 C 19.40 94.93 22.12 90.86 24.79 86.80 C 38.51 66.36 54.76 47.34 74.43 32.40 M 165.41 33.49 C 151.88 34.35 138.39 36.85 125.71 41.76 C 108.25 47.97 92.67 58.60 79.25 71.25 C 70.15 80.25 61.34 89.81 55.00 101.01 C 46.43 115.77 40.53 132.09 37.80 148.94 C 34.79 163.72 34.81 178.92 35.14 193.94 C 35.26 198.01 39.99 197.85 42.94 197.92 C 61.96 198.07 80.99 198.21 100.00 197.61 C 106.99 197.62 113.98 197.73 120.95 197.05 C 139.97 196.94 159.00 197.02 178.02 197.01 C 198.31 198.63 218.69 197.83 239.02 197.96 C 252.32 196.88 265.67 196.94 279.01 197.01 C 295.98 198.08 313.00 197.98 330.00 198.23 C 341.89 197.77 353.83 198.85 365.68 197.75 C 368.13 195.93 366.59 192.37 366.16 189.88 C 365.44 185.76 360.66 185.45 357.41 184.56 C 349.62 182.32 341.83 180.08 333.98 178.02 C 332.23 177.41 329.58 177.02 329.44 174.70 C 328.63 168.13 328.15 161.52 327.84 154.91 C 326.60 142.64 323.26 130.65 318.88 119.15 C 309.78 96.87 294.42 77.23 275.08 62.92 C 261.55 52.32 245.67 45.30 229.65 39.39 C 208.88 33.26 186.92 32.09 165.41 33.49 M 66.00 233.12 C 66.03 255.75 65.95 278.38 66.04 301.01 C 66.41 315.33 66.71 329.68 66.01 344.00 C 66.10 346.62 65.45 350.34 68.31 351.76 C 74.99 353.73 82.11 351.49 88.84 353.17 C 93.71 354.67 96.90 359.49 97.56 364.39 C 99.13 371.59 94.07 378.84 87.65 381.68 C 81.62 383.18 75.32 381.26 69.20 382.20 C 65.53 383.88 66.06 388.66 66.00 392.01 C 66.31 404.14 65.12 416.46 67.67 428.42 C 75.06 429.08 82.52 428.13 89.89 428.95 C 97.61 431.39 101.36 441.51 97.62 448.60 C 95.86 452.17 94.09 456.65 89.93 457.91 C 82.65 458.15 75.36 457.91 68.08 458.01 C 67.12 459.18 65.79 460.28 66.05 461.98 C 65.94 470.65 66.02 479.32 66.02 488.00 C 66.05 493.28 65.94 498.61 67.01 503.81 C 73.68 504.69 80.38 504.17 87.07 504.07 C 91.02 503.74 94.50 506.29 96.67 509.39 C 99.61 513.49 99.73 518.95 98.66 523.71 C 97.23 527.66 95.04 532.34 90.67 533.60 C 83.47 534.09 76.22 533.26 69.03 533.89 C 67.33 533.97 65.83 535.14 66.08 536.98 C 65.92 547.01 66.03 557.05 66.04 567.08 C 65.79 569.58 67.78 571.64 69.85 572.70 C 73.11 573.85 76.61 573.29 80.00 573.37 C 111.00 573.37 142.00 573.24 173.00 573.38 C 174.25 573.01 176.72 574.06 177.04 572.28 C 179.50 570.10 178.47 566.02 178.88 563.03 C 179.92 542.73 181.59 522.36 180.05 502.04 C 179.94 490.35 179.84 478.66 179.00 467.00 C 179.23 448.99 177.72 430.99 178.07 412.98 C 180.35 405.50 187.06 398.93 195.12 398.25 C 202.05 397.12 208.28 401.38 213.10 405.87 C 218.98 411.32 224.64 417.02 230.49 422.52 C 245.86 436.79 260.61 451.73 276.21 465.77 C 286.82 476.17 297.84 486.15 308.37 496.64 C 322.46 509.52 335.74 523.27 349.90 536.08 C 351.55 537.69 354.40 537.71 356.02 536.04 C 386.66 506.03 416.84 475.53 447.13 445.17 C 461.49 431.86 475.82 418.51 490.15 405.17 C 492.76 402.71 495.40 399.83 499.08 399.09 C 503.41 398.51 508.22 398.35 512.04 400.82 C 516.47 403.28 519.45 407.96 519.93 412.98 C 520.51 436.32 519.68 459.69 520.96 483.00 C 521.03 510.69 520.99 538.38 521.04 566.07 C 520.63 570.42 524.80 574.01 528.95 573.92 C 553.13 573.26 577.33 574.08 601.52 573.41 C 609.29 572.77 617.10 573.19 624.88 573.11 C 628.56 571.55 627.47 566.31 627.94 563.03 C 628.10 481.02 627.92 399.01 628.02 317.00 C 628.05 308.02 628.12 299.04 627.35 290.08 C 627.08 287.49 627.65 283.32 624.16 282.80 C 617.54 281.32 610.68 282.35 603.96 281.92 C 593.99 281.09 583.99 281.48 574.00 281.36 C 541.99 281.37 509.98 281.34 477.97 281.35 C 476.17 281.39 474.13 281.33 472.76 282.71 C 468.45 286.40 464.58 290.57 460.45 294.45 C 440.39 314.40 420.36 334.37 400.75 354.75 C 389.34 366.36 377.70 377.74 366.34 389.40 C 362.18 394.53 357.46 399.16 352.72 403.75 C 349.66 406.36 346.32 409.56 342.01 409.43 C 335.79 409.61 331.96 403.91 327.76 400.21 C 323.68 396.84 324.11 390.18 327.44 386.44 C 332.26 381.03 338.39 376.47 341.93 370.09 C 338.77 365.38 334.00 361.99 330.22 357.78 C 324.22 352.39 320.67 344.66 313.99 340.00 C 310.26 342.62 307.88 346.61 304.86 349.95 C 301.83 353.47 298.84 358.00 293.84 358.68 C 289.21 358.84 285.98 355.04 282.86 352.18 C 280.57 349.78 277.63 347.81 276.19 344.75 C 275.65 341.72 275.37 338.05 277.65 335.63 C 282.41 330.35 288.74 326.66 293.09 320.99 C 294.98 318.65 292.05 316.14 290.66 314.37 C 282.70 306.98 275.57 298.78 268.24 290.79 C 266.41 289.11 264.26 286.06 261.42 287.33 C 256.71 290.99 253.17 295.85 249.22 300.25 C 245.68 304.15 239.16 304.19 235.32 300.73 C 232.38 297.97 229.40 295.23 226.68 292.25 C 224.27 289.85 224.88 286.17 225.14 283.12 C 228.11 276.70 234.95 273.65 239.39 268.44 C 241.07 266.79 243.24 264.01 241.26 261.78 C 231.80 252.25 222.19 242.85 212.76 233.29 L 212.17 233.34 C 209.15 232.71 206.06 232.85 203.00 232.87 C 162.00 232.92 121.00 232.83 80.00 232.85 C 75.59 232.92 71.16 232.60 66.78 233.23 L 66.00 233.12 Z" />
<path fill="#384a4a" opacity="1.00" d=" M 504.38 7.56 C 507.21 6.96 510.13 7.35 513.01 7.27 C 556.02 7.27 599.03 7.28 642.04 7.26 C 651.19 7.06 659.01 15.11 659.99 23.92 C 660.03 49.95 659.85 75.99 660.37 102.02 C 660.42 118.99 661.29 135.95 660.93 152.92 C 654.83 163.41 649.53 174.37 644.32 185.33 C 641.56 190.80 638.76 197.26 632.62 199.61 C 626.91 201.31 620.87 200.16 615.02 200.26 C 573.36 199.87 531.70 200.10 490.04 200.27 C 481.75 200.25 473.84 195.50 469.35 188.62 C 465.40 182.93 464.51 175.81 464.04 169.07 C 463.88 141.72 463.73 114.37 463.16 87.03 C 462.73 71.34 463.40 55.64 462.44 39.98 C 461.72 34.98 464.22 29.99 468.57 27.49 C 480.39 20.65 492.38 14.06 504.38 7.56 M 496.05 48.01 C 496.21 70.34 495.96 92.70 497.00 115.00 C 497.02 131.03 496.96 147.05 497.03 163.07 C 496.85 165.02 497.91 167.57 500.18 167.54 C 540.72 167.59 581.25 167.46 621.79 167.62 C 622.76 164.14 622.09 160.54 622.03 157.01 C 622.03 120.36 621.36 83.71 620.92 47.07 C 619.97 46.63 618.97 46.41 617.94 46.40 C 578.32 46.41 538.69 46.45 499.07 46.38 C 497.95 46.45 495.70 46.19 496.05 48.01 Z" />
</g>
<g id="#f39f22ff">
<path fill="#f39f22" opacity="1.00" d=" M 165.41 33.49 C 186.92 32.09 208.88 33.26 229.65 39.39 C 245.67 45.30 261.55 52.32 275.08 62.92 C 294.42 77.23 309.78 96.87 318.88 119.15 C 323.26 130.65 326.60 142.64 327.84 154.91 C 328.15 161.52 328.63 168.13 329.44 174.70 C 329.58 177.02 332.23 177.41 333.98 178.02 C 341.83 180.08 349.62 182.32 357.41 184.56 C 360.66 185.45 365.44 185.76 366.16 189.88 C 366.59 192.37 368.13 195.93 365.68 197.75 C 353.83 198.85 341.89 197.77 330.00 198.23 C 313.00 197.98 295.98 198.08 279.01 197.01 C 265.67 196.94 252.32 196.88 239.02 197.96 C 218.69 197.83 198.31 198.63 178.02 197.01 C 159.00 197.02 139.97 196.94 120.95 197.05 C 113.98 197.73 106.99 197.62 100.00 197.61 C 80.99 198.21 61.96 198.07 42.94 197.92 C 39.99 197.85 35.26 198.01 35.14 193.94 C 34.81 178.92 34.79 163.72 37.80 148.94 C 40.53 132.09 46.43 115.77 55.00 101.01 C 61.34 89.81 70.15 80.25 79.25 71.25 C 92.67 58.60 108.25 47.97 125.71 41.76 C 138.39 36.85 151.88 34.35 165.41 33.49 Z" />
<path fill="#f39f22" opacity="1.00" d=" M 66.00 233.12 L 66.78 233.23 C 71.15 233.97 75.59 233.64 80.00 233.66 C 122.02 233.73 164.03 233.60 206.04 233.69 C 208.09 233.67 210.13 233.54 212.17 233.34 L 212.76 233.29 C 222.19 242.85 231.80 252.25 241.26 261.78 C 243.24 264.01 241.07 266.79 239.39 268.44 C 234.95 273.65 228.11 276.70 225.14 283.12 C 224.88 286.17 224.27 289.85 226.68 292.25 C 229.40 295.23 232.38 297.97 235.32 300.73 C 239.16 304.19 245.68 304.15 249.22 300.25 C 253.17 295.85 256.71 290.99 261.42 287.33 C 264.26 286.06 266.41 289.11 268.24 290.79 C 275.57 298.78 282.70 306.98 290.66 314.37 C 292.05 316.14 294.98 318.65 293.09 320.99 C 288.74 326.66 282.41 330.35 277.65 335.63 C 275.37 338.05 275.65 341.72 276.19 344.75 C 277.63 347.81 280.57 349.78 282.86 352.18 C 285.98 355.04 289.21 358.84 293.84 358.68 C 298.84 358.00 301.83 353.47 304.86 349.95 C 307.88 346.61 310.26 342.62 313.99 340.00 C 320.67 344.66 324.22 352.39 330.22 357.78 C 334.00 361.99 338.77 365.38 341.93 370.09 C 338.39 376.47 332.26 381.03 327.44 386.44 C 324.11 390.18 323.68 396.84 327.76 400.21 C 331.96 403.91 335.79 409.61 342.01 409.43 C 346.32 409.56 349.66 406.36 352.72 403.75 C 357.46 399.16 362.18 394.53 366.34 389.40 C 377.70 377.74 389.34 366.36 400.75 354.75 C 420.36 334.37 440.39 314.40 460.45 294.45 C 464.58 290.57 468.45 286.40 472.76 282.71 C 474.13 281.33 476.17 281.39 477.97 281.35 C 509.98 281.34 541.99 281.37 574.00 281.36 C 583.99 281.48 593.99 281.09 603.96 281.92 C 610.68 282.35 617.54 281.32 624.16 282.80 C 627.65 283.32 627.08 287.49 627.35 290.08 C 628.12 299.04 628.05 308.02 628.02 317.00 C 627.92 399.01 628.10 481.02 627.94 563.03 C 627.47 566.31 628.56 571.55 624.88 573.11 C 617.10 573.19 609.29 572.77 601.52 573.41 C 577.33 574.08 553.13 573.26 528.95 573.92 C 524.80 574.01 520.63 570.42 521.04 566.07 C 520.99 538.38 521.03 510.69 520.96 483.00 C 519.68 459.69 520.51 436.32 519.93 412.98 C 519.45 407.96 516.47 403.28 512.04 400.82 C 508.22 398.35 503.41 398.51 499.08 399.09 C 495.40 399.83 492.76 402.71 490.15 405.17 C 475.82 418.51 461.49 431.86 447.13 445.17 C 416.84 475.53 386.66 506.03 356.02 536.04 C 354.40 537.71 351.55 537.69 349.90 536.08 C 335.74 523.27 322.46 509.52 308.37 496.64 C 297.84 486.15 286.82 476.17 276.21 465.77 C 260.61 451.73 245.86 436.79 230.49 422.52 C 224.64 417.02 218.98 411.32 213.10 405.87 C 208.28 401.38 202.05 397.12 195.12 398.25 C 187.06 398.93 180.35 405.50 178.07 412.98 C 177.72 430.99 179.23 448.99 179.00 467.00 C 179.84 478.66 179.94 490.35 180.05 502.04 C 181.59 522.36 179.92 542.73 178.88 563.03 C 178.47 566.02 179.50 570.10 177.04 572.28 C 148.03 572.42 119.02 572.30 90.01 572.33 C 83.29 572.49 76.54 571.93 69.85 572.70 C 67.78 571.64 65.79 569.58 66.04 567.08 C 66.03 557.05 65.92 547.01 66.08 536.98 C 65.83 535.14 67.33 533.97 69.03 533.89 C 76.22 533.26 83.47 534.09 90.67 533.60 C 95.04 532.34 97.23 527.66 98.66 523.71 C 99.73 518.95 99.61 513.49 96.67 509.39 C 94.50 506.29 91.02 503.74 87.07 504.07 C 80.38 504.17 73.68 504.69 67.01 503.81 C 65.94 498.61 66.05 493.28 66.02 488.00 C 66.02 479.32 65.94 470.65 66.05 461.98 C 65.79 460.28 67.12 459.18 68.08 458.01 C 75.36 457.91 82.65 458.15 89.93 457.91 C 94.09 456.65 95.86 452.17 97.62 448.60 C 101.36 441.51 97.61 431.39 89.89 428.95 C 82.52 428.13 75.06 429.08 67.67 428.42 C 65.12 416.46 66.31 404.14 66.00 392.01 C 66.06 388.66 65.53 383.88 69.20 382.20 C 75.32 381.26 81.62 383.18 87.65 381.68 C 94.07 378.84 99.13 371.59 97.56 364.39 C 96.90 359.49 93.71 354.67 88.84 353.17 C 82.11 351.49 74.99 353.73 68.31 351.76 C 65.45 350.34 66.10 346.62 66.01 344.00 C 66.71 329.68 66.41 315.33 66.04 301.01 C 65.95 278.38 66.03 255.75 66.00 233.12 Z" />
</g>
<g id="#fed018ff">
<path fill="#fed018" opacity="1.00" d=" M 496.05 48.01 C 495.70 46.19 497.95 46.45 499.07 46.38 C 538.69 46.45 578.32 46.41 617.94 46.40 C 618.97 46.41 619.97 46.63 620.92 47.07 C 621.36 83.71 622.03 120.36 622.03 157.01 C 622.09 160.54 622.76 164.14 621.79 167.62 C 581.25 167.46 540.72 167.59 500.18 167.54 C 497.91 167.57 496.85 165.02 497.03 163.07 C 496.96 147.05 497.02 131.03 497.00 115.00 C 495.96 92.70 496.21 70.34 496.05 48.01 Z" />
<path fill="#fed018" opacity="1.00" d=" M 66.78 233.23 C 71.16 232.60 75.59 232.92 80.00 232.85 C 121.00 232.83 162.00 232.92 203.00 232.87 C 206.06 232.85 209.15 232.71 212.17 233.34 C 210.13 233.54 208.09 233.67 206.04 233.69 C 164.03 233.60 122.02 233.73 80.00 233.66 C 75.59 233.64 71.15 233.97 66.78 233.23 Z" />
<path fill="#fed018" opacity="1.00" d=" M 69.85 572.70 C 76.54 571.93 83.29 572.49 90.01 572.33 C 119.02 572.30 148.03 572.42 177.04 572.28 C 176.72 574.06 174.25 573.01 173.00 573.38 C 142.00 573.24 111.00 573.37 80.00 573.37 C 76.61 573.29 73.11 573.85 69.85 572.70 Z" />
</g>
</svg>
