<?xml version="1.0" encoding="UTF-8" ?>
<!DOCTYPE svg PUBLIC "-//W3C//DTD SVG 1.1//EN" "http://www.w3.org/Graphics/SVG/1.1/DTD/svg11.dtd">
<svg width="130pt" height="134pt" viewBox="0 0 130 134" version="1.1" xmlns="http://www.w3.org/2000/svg">
<g id="#fcfaf4ff">
<path fill="#fcfaf4" opacity="1.00" d=" M 29.83 29.95 C 30.72 28.59 32.64 29.36 33.98 29.16 C 55.98 29.38 77.99 29.48 100.00 29.46 C 99.86 34.87 99.85 40.28 100.01 45.68 C 76.54 45.76 53.08 45.63 29.61 45.75 C 29.66 40.48 29.31 35.20 29.83 29.95 Z" />
</g>
<g id="#142324ff">
<path fill="#142324" opacity="1.00" d=" M 1.51 12.72 C 4.02 5.57 11.33 0.25 18.97 0.49 C 48.00 0.50 77.03 0.52 106.06 0.49 C 109.85 0.54 113.83 0.16 117.40 1.73 C 124.29 4.46 129.28 11.48 129.31 18.93 C 129.35 50.96 129.30 83.00 129.33 115.04 C 129.69 124.99 120.78 133.85 110.93 134.00 L 18.65 134.00 C 12.09 134.05 5.81 130.20 2.72 124.45 C -2.06 115.99 1.85 105.59 0.00 96.47 L 0.00 30.88 C 0.92 24.85 -0.50 18.56 1.51 12.72 M 17.27 9.24 C 12.45 10.41 9.35 15.36 9.50 20.18 C 9.47 51.81 9.50 83.45 9.48 115.09 C 9.37 120.26 13.58 125.53 18.97 125.47 C 49.26 125.58 79.56 125.52 109.84 125.49 C 115.41 125.64 120.38 120.60 120.28 115.06 C 120.34 83.37 120.31 51.69 120.32 20.01 C 120.74 14.34 115.95 8.83 110.17 9.00 C 81.79 8.94 53.40 8.99 25.01 8.96 C 22.43 8.99 19.82 8.78 17.27 9.24 Z" />
<path fill="#142324" opacity="1.00" d=" M 24.29 21.19 C 50.54 20.81 76.84 21.13 103.10 21.03 C 105.91 20.76 109.02 22.83 108.87 25.86 C 108.95 33.61 108.94 41.37 108.88 49.12 C 109.00 52.14 106.07 54.45 103.16 54.10 C 77.76 54.17 52.35 54.11 26.95 54.13 C 24.05 54.45 20.68 52.31 21.07 49.10 C 21.06 41.37 21.05 33.62 20.98 25.89 C 20.78 23.75 22.43 21.96 24.29 21.19 M 29.83 29.95 C 29.31 35.20 29.66 40.48 29.61 45.75 C 53.08 45.63 76.54 45.76 100.01 45.68 C 99.85 40.28 99.86 34.87 100.00 29.46 C 77.99 29.48 55.98 29.38 33.98 29.16 C 32.64 29.36 30.72 28.59 29.83 29.95 Z" />
<path fill="#142324" opacity="1.00" d=" M 37.96 67.10 C 39.71 63.98 44.86 64.69 45.75 68.10 C 46.35 71.78 46.00 75.54 46.02 79.25 C 49.69 79.31 53.39 79.03 57.06 79.37 C 59.82 80.84 59.68 85.53 57.53 87.53 C 53.72 87.97 49.87 87.66 46.04 87.72 C 45.97 91.44 46.40 95.21 45.79 98.91 C 45.00 102.58 39.31 103.41 37.78 99.84 C 37.24 95.82 37.60 91.75 37.55 87.72 C 33.53 87.63 29.48 87.99 25.48 87.52 C 23.08 85.73 23.04 80.55 26.08 79.37 C 29.89 79.06 33.73 79.34 37.55 79.28 C 37.62 75.22 37.13 71.09 37.96 67.10 Z" />
<path fill="#142324" opacity="1.00" d=" M 76.33 79.39 C 84.87 79.04 93.44 79.35 101.98 79.24 C 106.94 78.28 107.55 87.48 102.86 87.67 C 94.58 87.80 86.29 87.69 78.01 87.73 C 73.56 88.27 72.66 80.88 76.33 79.39 Z" />
<path fill="#142324" opacity="1.00" d=" M 75.42 100.19 C 76.80 99.44 78.49 99.84 80.00 99.71 C 87.98 99.88 95.97 99.51 103.94 99.88 C 107.56 101.71 106.37 108.54 102.05 108.24 C 94.02 108.39 85.98 108.37 77.95 108.25 C 74.03 108.36 72.87 102.57 75.42 100.19 Z" />
</g>
<path fill="var(--color-primary)" opacity="1.00" d=" M 17.27 9.24 C 19.82 8.78 22.43 8.99 25.01 8.96 C 53.40 8.99 81.79 8.94 110.17 9.00 C 115.95 8.83 120.74 14.34 120.32 20.01 C 120.31 51.69 120.34 83.37 120.28 115.06 C 120.38 120.60 115.41 125.64 109.84 125.49 C 79.56 125.52 49.26 125.58 18.97 125.47 C 13.58 125.53 9.37 120.26 9.48 115.09 C 9.50 83.45 9.47 51.81 9.50 20.18 C 9.35 15.36 12.45 10.41 17.27 9.24 M 24.29 21.19 C 22.43 21.96 20.78 23.75 20.98 25.89 C 21.05 33.62 21.06 41.37 21.07 49.10 C 20.68 52.31 24.05 54.45 26.95 54.13 C 52.35 54.11 77.76 54.17 103.16 54.10 C 106.07 54.45 109.00 52.14 108.88 49.12 C 108.94 41.37 108.95 33.61 108.87 25.86 C 109.02 22.83 105.91 20.76 103.10 21.03 C 76.84 21.13 50.54 20.81 24.29 21.19 M 37.96 67.10 C 37.13 71.09 37.62 75.22 37.55 79.28 C 33.73 79.34 29.89 79.06 26.08 79.37 C 23.04 80.55 23.08 85.73 25.48 87.52 C 29.48 87.99 33.53 87.63 37.55 87.72 C 37.60 91.75 37.24 95.82 37.78 99.84 C 39.31 103.41 45.00 102.58 45.79 98.91 C 46.40 95.21 45.97 91.44 46.04 87.72 C 49.87 87.66 53.72 87.97 57.53 87.53 C 59.68 85.53 59.82 80.84 57.06 79.37 C 53.39 79.03 49.69 79.31 46.02 79.25 C 46.00 75.54 46.35 71.78 45.75 68.10 C 44.86 64.69 39.71 63.98 37.96 67.10 M 76.33 79.39 C 72.66 80.88 73.56 88.27 78.01 87.73 C 86.29 87.69 94.58 87.80 102.86 87.67 C 107.55 87.48 106.94 78.28 101.98 79.24 C 93.44 79.35 84.87 79.04 76.33 79.39 M 75.42 100.19 C 72.87 102.57 74.03 108.36 77.95 108.25 C 85.98 108.37 94.02 108.39 102.05 108.24 C 106.37 108.54 107.56 101.71 103.94 99.88 C 95.97 99.51 87.98 99.88 80.00 99.71 C 78.49 99.84 76.80 99.44 75.42 100.19 Z" />
</svg>
