<?xml version="1.0" encoding="UTF-8" ?>
<!DOCTYPE svg PUBLIC "-//W3C//DTD SVG 1.1//EN" "http://www.w3.org/Graphics/SVG/1.1/DTD/svg11.dtd">
<svg width="116pt" height="156pt" viewBox="0 0 116 156" version="1.1" xmlns="http://www.w3.org/2000/svg">
<g id="#fcfbf6ff">
<path fill="#fcfbf6" opacity="1.00" d=" M 17.28 62.20 C 44.38 62.24 71.48 62.22 98.58 62.21 C 98.49 86.82 98.50 111.43 98.45 136.03 C 98.72 142.16 93.14 147.83 87.03 147.71 C 67.67 147.75 48.32 147.72 28.96 147.74 C 22.75 148.12 17.06 142.24 17.34 136.10 C 17.39 111.46 17.31 86.83 17.28 62.20 M 40.26 72.15 C 39.71 75.13 40.07 78.18 40.01 81.19 C 37.07 81.17 34.11 80.96 31.18 81.29 C 28.43 82.36 28.92 86.63 30.83 88.33 C 33.85 88.91 36.95 88.56 40.00 88.64 C 40.16 91.90 39.49 95.30 40.47 98.47 C 42.62 98.79 44.81 98.51 46.94 98.16 C 47.11 94.98 47.11 91.80 47.06 88.61 C 50.06 88.53 53.15 89.02 56.09 88.32 C 58.83 86.47 56.80 83.23 55.64 81.08 C 52.78 81.08 49.92 81.08 47.06 81.13 C 47.10 78.37 47.11 75.60 47.14 72.83 C 45.01 71.80 42.50 70.73 40.26 72.15 M 68.14 81.26 C 67.42 83.40 66.11 87.22 69.04 88.16 C 74.99 88.42 80.97 88.28 86.93 88.14 C 87.01 85.94 87.03 83.75 87.05 81.56 C 80.76 81.08 74.44 81.36 68.14 81.26 M 29.16 109.23 C 28.48 116.13 29.09 123.11 28.84 130.04 C 28.85 132.05 28.45 135.28 31.16 135.63 C 37.76 135.95 44.38 135.69 50.98 135.79 C 52.92 135.88 55.92 135.52 55.94 132.98 C 56.34 125.32 55.98 117.63 56.11 109.96 C 55.77 109.44 55.09 108.39 54.75 107.87 C 48.52 107.32 42.25 107.74 36.01 107.58 C 33.69 107.67 30.82 107.18 29.16 109.23 M 66.14 107.78 C 65.69 109.22 65.23 110.67 64.77 112.11 C 65.62 113.25 66.04 115.42 67.93 115.00 C 72.62 115.04 77.32 114.96 82.01 115.02 C 83.66 114.91 85.80 115.48 86.79 113.73 C 87.38 111.54 87.63 108.52 84.93 107.70 C 78.68 107.51 72.40 107.51 66.14 107.78 M 64.78 134.08 C 68.74 136.64 73.63 135.21 78.04 135.58 C 81.10 135.35 84.92 136.39 87.34 133.98 C 87.71 131.87 87.84 128.50 85.05 128.14 C 79.36 127.76 73.63 128.19 67.92 128.09 C 64.81 127.95 64.78 131.87 64.78 134.08 Z" />
<path fill="#fcfbf6" opacity="1.00" d=" M 36.59 115.42 C 40.44 115.43 44.28 115.43 48.12 115.40 C 48.20 119.64 48.16 123.88 48.23 128.12 C 44.36 128.12 40.49 128.13 36.62 128.13 C 36.62 123.89 36.59 119.65 36.59 115.42 Z" />
</g>
<g id="#182327ff">
<path fill="#182327" opacity="1.00" d=" M 57.36 0.00 L 58.74 0.00 C 62.63 0.55 64.91 4.50 68.86 4.80 C 87.72 8.74 102.53 24.96 106.72 43.51 C 111.21 45.03 116.31 48.50 115.55 53.93 C 115.52 58.77 110.76 61.28 106.74 62.53 C 106.76 87.03 106.77 111.53 106.74 136.03 C 106.72 145.76 98.98 154.11 89.62 156.00 L 25.31 156.00 C 16.53 154.00 9.30 146.19 9.09 137.03 C 9.06 112.19 9.10 87.35 9.07 62.51 C 4.63 61.39 0.20 58.07 0.30 53.06 C 0.36 48.17 4.76 45.18 8.85 43.58 C 12.85 23.88 29.63 7.65 49.42 4.26 C 51.72 2.28 54.27 0.44 57.36 0.00 M 54.25 13.87 C 53.94 19.84 54.16 25.82 54.00 31.80 C 51.38 31.78 48.75 31.76 46.13 31.75 C 46.30 25.42 46.43 19.10 46.79 12.79 C 34.35 16.95 23.37 26.19 18.71 38.65 C 16.92 42.59 17.31 47.29 14.93 50.97 C 12.75 52.15 9.58 51.30 8.15 53.72 C 13.11 54.08 18.09 53.88 23.05 53.93 C 51.26 53.84 79.48 54.10 107.69 53.78 C 105.75 50.49 99.70 52.77 99.20 48.03 C 97.09 31.62 84.52 17.29 68.57 12.95 C 68.66 19.20 68.63 25.45 68.66 31.71 C 66.01 31.72 63.35 31.74 60.70 31.78 C 60.66 26.19 60.94 20.60 60.99 15.01 C 61.02 12.55 60.58 9.50 58.05 8.34 C 55.33 8.56 54.43 11.58 54.25 13.87 M 17.28 62.20 C 17.31 86.83 17.39 111.46 17.34 136.10 C 17.06 142.24 22.75 148.12 28.96 147.74 C 48.32 147.72 67.67 147.75 87.03 147.71 C 93.14 147.83 98.72 142.16 98.45 136.03 C 98.50 111.43 98.49 86.82 98.58 62.21 C 71.48 62.22 44.38 62.24 17.28 62.20 Z" />
<path fill="#182327" opacity="1.00" d=" M 40.26 72.15 C 42.50 70.73 45.01 71.80 47.14 72.83 C 47.11 75.60 47.10 78.37 47.06 81.13 C 49.92 81.08 52.78 81.08 55.64 81.08 C 56.80 83.23 58.83 86.47 56.09 88.32 C 53.15 89.02 50.06 88.53 47.06 88.61 C 47.11 91.80 47.11 94.98 46.94 98.16 C 44.81 98.51 42.62 98.79 40.47 98.47 C 39.49 95.30 40.16 91.90 40.00 88.64 C 36.95 88.56 33.85 88.91 30.83 88.33 C 28.92 86.63 28.43 82.36 31.18 81.29 C 34.11 80.96 37.07 81.17 40.01 81.19 C 40.07 78.18 39.71 75.13 40.26 72.15 Z" />
<path fill="#182327" opacity="1.00" d=" M 68.14 81.26 C 74.44 81.36 80.76 81.08 87.05 81.56 C 87.03 83.75 87.01 85.94 86.93 88.14 C 80.97 88.28 74.99 88.42 69.04 88.16 C 66.11 87.22 67.42 83.40 68.14 81.26 Z" />
<path fill="#182327" opacity="1.00" d=" M 29.16 109.23 C 30.82 107.18 33.69 107.67 36.01 107.58 C 42.25 107.74 48.52 107.32 54.75 107.87 C 55.09 108.39 55.77 109.44 56.11 109.96 C 55.98 117.63 56.34 125.32 55.94 132.98 C 55.92 135.52 52.92 135.88 50.98 135.79 C 44.38 135.69 37.76 135.95 31.16 135.63 C 28.45 135.28 28.85 132.05 28.84 130.04 C 29.09 123.11 28.48 116.13 29.16 109.23 M 36.59 115.42 C 36.59 119.65 36.62 123.89 36.62 128.13 C 40.49 128.13 44.36 128.12 48.23 128.12 C 48.16 123.88 48.20 119.64 48.12 115.40 C 44.28 115.43 40.44 115.43 36.59 115.42 Z" />
<path fill="#182327" opacity="1.00" d=" M 66.14 107.78 C 72.40 107.51 78.68 107.51 84.93 107.70 C 87.63 108.52 87.38 111.54 86.79 113.73 C 85.80 115.48 83.66 114.91 82.01 115.02 C 77.32 114.96 72.62 115.04 67.93 115.00 C 66.04 115.42 65.62 113.25 64.77 112.11 C 65.23 110.67 65.69 109.22 66.14 107.78 Z" />
<path fill="#182327" opacity="1.00" d=" M 64.78 134.08 C 64.78 131.87 64.81 127.95 67.92 128.09 C 73.63 128.19 79.36 127.76 85.05 128.14 C 87.84 128.50 87.71 131.87 87.34 133.98 C 84.92 136.39 81.10 135.35 78.04 135.58 C 73.63 135.21 68.74 136.64 64.78 134.08 Z" />
</g>
<g id="#fea526ff">
<path fill="#fea526" opacity="1.00" d=" M 54.25 13.87 C 54.43 11.58 55.33 8.56 58.05 8.34 C 60.58 9.50 61.02 12.55 60.99 15.01 C 60.94 20.60 60.66 26.19 60.70 31.78 C 63.35 31.74 66.01 31.72 68.66 31.71 C 68.63 25.45 68.66 19.20 68.57 12.95 C 84.52 17.29 97.09 31.62 99.20 48.03 C 99.70 52.77 105.75 50.49 107.69 53.78 C 79.48 54.10 51.26 53.84 23.05 53.93 C 18.09 53.88 13.11 54.08 8.15 53.72 C 9.58 51.30 12.75 52.15 14.93 50.97 C 17.31 47.29 16.92 42.59 18.71 38.65 C 23.37 26.19 34.35 16.95 46.79 12.79 C 46.43 19.10 46.30 25.42 46.13 31.75 C 48.75 31.76 51.38 31.78 54.00 31.80 C 54.16 25.82 53.94 19.84 54.25 13.87 Z" />
</g>
</svg>
