<svg xmlns="http://www.w3.org/2000/svg" width="100%" height="100%" viewBox="0 0 13 13" fill="none" stroke="currentColor">
  <path d="M12.1889 12.1889L9.48927 9.48927M9.48927 9.48927C9.95104 9.02749 10.3173 8.47928 10.5673 7.87594C10.8172 7.2726 10.9458 6.62595 10.9458 5.9729C10.9458 5.31985 10.8172 4.67319 10.5673 4.06985C10.3173 3.46651 9.95104 2.9183 9.48927 2.45653C9.02749 1.99475 8.47928 1.62845 7.87594 1.37854C7.2726 1.12863 6.62595 1 5.9729 1C5.31985 1 4.67319 1.12863 4.06985 1.37854C3.46651 1.62845 2.9183 1.99475 2.45653 2.45653C1.52393 3.38913 1 4.654 1 5.9729C1 7.29179 1.52393 8.55667 2.45653 9.48927C3.38913 10.4219 4.654 10.9458 5.9729 10.9458C7.29179 10.9458 8.55667 10.4219 9.48927 9.48927Z" stroke-linecap="round" stroke-linejoin="round"/>
</svg>