<?xml version="1.0" encoding="UTF-8" ?>
<!DOCTYPE svg PUBLIC "-//W3C//DTD SVG 1.1//EN" "http://www.w3.org/Graphics/SVG/1.1/DTD/svg11.dtd">
<svg width="152pt" height="161pt" viewBox="0 0 152 161" version="1.1" xmlns="http://www.w3.org/2000/svg">
<path fill="#fcfaf4" opacity="1.00" d=" M 82.43 55.82 C 86.43 58.70 91.61 61.57 91.99 67.08 C 88.26 65.55 81.98 64.09 82.43 58.95 C 82.43 58.17 82.43 56.60 82.43 55.82 Z" />
<path fill="#fcfaf4" opacity="1.00" d=" M 39.12 88.13 C 40.63 85.87 41.65 83.03 44.01 81.51 C 46.53 81.17 49.09 81.64 51.41 82.64 C 58.37 85.57 65.31 88.55 72.14 91.76 C 66.05 96.88 59.47 101.43 53.49 106.69 C 51.40 108.26 52.86 111.06 52.83 113.20 C 54.96 113.55 57.46 114.72 59.44 113.35 C 67.02 107.78 74.09 101.52 81.83 96.18 C 91.89 101.63 102.69 105.80 112.31 112.02 C 109.80 114.81 106.22 116.09 102.90 117.60 C 89.52 123.38 76.01 128.87 62.57 134.51 C 48.70 140.10 35.09 146.45 20.71 150.67 C 16.77 152.04 12.03 150.04 10.48 146.12 C 9.24 143.60 10.90 140.90 11.69 138.52 C 19.60 121.09 29.08 104.42 39.12 88.13 Z" />
<path fill="#142324" opacity="1.00" d=" M 108.62 9.52 C 113.26 3.72 120.71 0.72 127.98 0.45 C 133.88 1.26 139.88 3.51 144.05 7.93 C 148.34 12.18 150.90 18.07 151.36 24.07 C 151.24 30.38 148.65 36.72 144.04 41.10 C 141.70 43.50 138.80 45.22 136.09 47.17 C 123.96 56.05 111.63 64.67 99.54 73.60 C 95.98 76.33 91.16 76.67 87.11 74.90 C 87.13 79.56 87.13 84.22 87.12 88.88 C 96.46 93.47 105.81 98.05 115.00 102.96 C 119.24 105.16 122.50 110.56 120.31 115.26 C 118.63 120.45 113.08 122.62 108.52 124.65 C 86.72 133.81 65.05 143.28 43.13 152.13 C 35.81 154.90 28.50 157.84 20.87 159.63 C 10.96 161.80 0.27 153.16 1.03 142.89 C 3.10 133.57 8.00 125.21 12.57 116.93 C 19.43 104.75 25.75 92.23 33.46 80.54 C 35.30 77.09 38.08 73.76 42.05 72.82 C 46.00 72.24 50.08 72.71 53.80 74.19 C 60.63 76.72 67.19 79.91 73.85 82.85 C 73.52 74.56 73.79 66.25 73.62 57.95 C 73.52 54.86 74.04 51.55 76.18 49.16 C 87.02 35.97 97.79 22.71 108.62 9.52 M 116.51 14.47 C 107.03 25.85 97.87 37.50 88.32 48.83 C 90.02 51.42 93.74 50.15 95.31 52.74 C 96.27 53.77 96.26 55.26 96.57 56.55 C 97.86 58.29 99.16 60.03 100.43 61.79 C 109.88 54.39 119.90 47.76 129.53 40.60 C 133.29 37.66 137.92 35.43 140.27 31.06 C 143.62 25.55 142.08 17.87 137.29 13.69 C 131.67 8.36 121.60 8.44 116.51 14.47 M 82.43 55.82 C 82.43 56.60 82.43 58.17 82.43 58.95 C 81.98 64.09 88.26 65.55 91.99 67.08 C 91.61 61.57 86.43 58.70 82.43 55.82 M 39.12 88.13 C 29.08 104.42 19.60 121.09 11.69 138.52 C 10.90 140.90 9.24 143.60 10.48 146.12 C 12.03 150.04 16.77 152.04 20.71 150.67 C 35.09 146.45 48.70 140.10 62.57 134.51 C 76.01 128.87 89.52 123.38 102.90 117.60 C 106.22 116.09 109.80 114.81 112.31 112.02 C 102.69 105.80 91.89 101.63 81.83 96.18 C 74.09 101.52 67.02 107.78 59.44 113.35 C 57.46 114.72 54.96 113.55 52.83 113.20 C 52.86 111.06 51.40 108.26 53.49 106.69 C 59.47 101.43 66.05 96.88 72.14 91.76 C 65.31 88.55 58.37 85.57 51.41 82.64 C 49.09 81.64 46.53 81.17 44.01 81.51 C 41.65 83.03 40.63 85.87 39.12 88.13 Z" />
<path fill="#fda72e" opacity="1.00" d=" M 116.51 14.47 C 121.60 8.44 131.67 8.36 137.29 13.69 C 142.08 17.87 143.62 25.55 140.27 31.06 C 137.92 35.43 133.29 37.66 129.53 40.60 C 119.90 47.76 109.88 54.39 100.43 61.79 C 99.16 60.03 97.86 58.29 96.57 56.55 C 96.26 55.26 96.27 53.77 95.31 52.74 C 93.74 50.15 90.02 51.42 88.32 48.83 C 97.87 37.50 107.03 25.85 116.51 14.47 Z" />
</svg>
