<?xml version="1.0" encoding="UTF-8" ?>
<!DOCTYPE svg PUBLIC "-//W3C//DTD SVG 1.1//EN" "http://www.w3.org/Graphics/SVG/1.1/DTD/svg11.dtd">
<svg width="111pt" height="145pt" viewBox="0 0 111 145" version="1.1" xmlns="http://www.w3.org/2000/svg">
<g id="#fcfaf6ff">
<path fill="#fcfaf6" opacity="1.00" d=" M 16.51 9.65 C 18.25 8.99 20.14 9.00 21.97 8.99 C 45.01 9.04 68.05 8.94 91.08 9.03 C 97.17 9.14 102.00 15.02 101.98 20.91 C 101.98 55.26 102.07 89.61 102.05 123.97 C 102.40 131.07 95.80 136.69 89.05 136.96 C 66.68 136.98 44.31 136.95 21.95 136.98 C 16.44 137.02 10.84 133.35 9.37 127.90 C 8.82 125.32 8.98 122.66 8.96 120.04 C 9.00 86.69 8.94 53.34 9.00 19.99 C 8.89 15.34 12.35 11.31 16.51 9.65 M 32.06 26.06 C 31.81 30.03 32.03 34.01 31.98 37.98 C 28.39 37.99 24.80 37.99 21.21 38.00 C 20.82 38.50 20.05 39.51 19.67 40.02 C 19.86 42.06 19.03 44.72 21.09 46.07 C 24.71 46.35 28.35 46.11 31.98 46.16 C 32.01 50.42 31.87 54.67 32.10 58.92 C 34.58 58.72 38.29 60.41 39.78 57.69 C 39.92 53.85 39.74 50.00 39.79 46.16 C 43.18 46.11 46.58 46.37 49.96 46.04 C 53.42 45.88 51.90 41.92 52.22 39.70 C 51.81 39.27 50.98 38.42 50.57 37.99 C 46.98 38.00 43.39 38.00 39.80 37.97 C 39.34 33.73 40.80 29.05 38.98 25.10 C 36.81 24.57 33.43 23.77 32.06 26.06 M 63.33 38.50 C 61.51 40.63 61.75 46.90 65.97 46.18 C 73.93 46.11 81.90 46.33 89.85 46.08 C 91.76 44.21 91.79 39.78 89.62 38.06 C 81.10 37.93 72.57 37.96 64.05 38.05 L 63.33 38.50 M 20.87 71.92 C 20.56 79.29 20.75 86.67 20.67 94.05 C 20.42 96.02 22.04 97.81 24.03 97.66 C 31.66 97.66 39.31 97.73 46.94 97.62 C 48.23 97.73 49.29 96.94 50.04 95.97 C 50.37 91.33 50.07 86.66 50.17 82.01 C 50.05 78.45 50.62 74.79 49.52 71.34 C 43.40 70.43 37.17 71.12 31.00 70.90 C 27.63 71.12 23.96 70.17 20.87 71.92 M 62.23 73.93 C 62.13 80.90 62.06 87.90 62.25 94.87 C 62.14 96.94 64.27 97.71 65.99 97.64 C 72.35 97.70 78.71 97.63 85.07 97.69 C 86.56 97.60 88.42 97.93 89.39 96.47 C 90.62 95.33 89.98 93.41 90.20 91.93 C 90.15 85.34 90.27 78.76 90.09 72.18 C 88.86 71.44 87.58 70.70 86.08 70.90 C 79.04 70.92 72.00 70.86 64.96 70.92 C 63.31 70.81 62.09 72.36 62.23 73.93 M 22.29 104.06 C 21.95 104.37 21.26 104.99 20.92 105.30 C 20.59 111.19 20.89 117.11 20.78 123.01 C 20.52 124.82 22.10 126.57 23.95 126.35 C 31.96 126.44 39.97 126.39 47.98 126.36 C 49.73 126.45 51.20 124.68 51.15 123.01 C 51.22 117.66 51.27 112.31 51.09 106.96 C 51.21 105.31 49.78 103.56 48.02 103.99 C 39.44 104.03 30.86 103.89 22.29 104.06 M 62.40 107.01 C 62.32 112.36 62.32 117.71 62.37 123.06 C 62.05 125.04 64.17 126.54 66.00 126.36 C 72.33 126.43 78.66 126.35 84.98 126.42 C 86.84 126.47 89.09 126.51 90.06 124.56 C 90.57 120.41 90.14 116.20 90.29 112.02 C 90.09 109.28 91.11 106.04 88.78 103.94 C 80.81 104.07 72.84 103.94 64.87 103.99 C 63.28 103.82 62.18 105.57 62.40 107.01 Z" />
<path fill="#fcfaf6" opacity="1.00" d=" M 28.55 78.51 C 33.08 78.64 37.68 78.17 42.16 78.68 C 42.30 82.44 42.13 86.21 42.24 89.97 C 37.67 89.98 33.11 89.98 28.55 89.97 C 28.56 86.15 28.56 82.33 28.55 78.51 Z" />
<path fill="#fcfaf6" opacity="1.00" d=" M 69.88 78.42 C 73.93 78.54 77.98 78.50 82.03 78.45 C 82.08 82.29 82.07 86.13 82.07 89.97 C 78.00 89.99 73.93 89.99 69.87 89.97 C 69.92 86.12 69.91 82.27 69.88 78.42 Z" />
<path fill="#fcfaf6" opacity="1.00" d=" M 28.60 111.81 C 33.52 111.81 38.45 111.81 43.38 111.81 C 43.38 114.05 43.38 116.30 43.37 118.54 C 38.45 118.44 33.52 118.48 28.59 118.50 C 28.58 116.27 28.59 114.04 28.60 111.81 Z" />
<path fill="#fcfaf6" opacity="1.00" d=" M 70.07 111.82 C 74.08 111.81 78.09 111.81 82.10 111.82 C 82.09 114.05 82.07 116.29 82.02 118.53 C 78.03 118.46 74.04 118.47 70.05 118.55 C 70.05 116.30 70.06 114.06 70.07 111.82 Z" />
</g>
<g id="#172326ff">
<path fill="#172326" opacity="1.00" d=" M 21.44 0.00 L 90.09 0.00 C 96.39 0.69 102.84 3.27 106.58 8.61 C 109.48 12.24 110.33 16.91 111.00 21.37 L 111.00 124.86 C 110.03 134.65 102.65 143.55 92.70 145.00 L 17.20 145.00 C 6.45 142.94 -0.60 132.02 0.00 121.41 L 0.00 20.77 C 0.46 14.90 2.78 9.03 7.37 5.18 C 11.22 1.70 16.41 0.49 21.44 0.00 M 16.51 9.65 C 12.35 11.31 8.89 15.34 9.00 19.99 C 8.94 53.34 9.00 86.69 8.96 120.04 C 8.98 122.66 8.82 125.32 9.37 127.90 C 10.84 133.35 16.44 137.02 21.95 136.98 C 44.31 136.95 66.68 136.98 89.05 136.96 C 95.80 136.69 102.40 131.07 102.05 123.97 C 102.07 89.61 101.98 55.26 101.98 20.91 C 102.00 15.02 97.17 9.14 91.08 9.03 C 68.05 8.94 45.01 9.04 21.97 8.99 C 20.14 9.00 18.25 8.99 16.51 9.65 Z" />
<path fill="#172326" opacity="1.00" d=" M 32.06 26.06 C 33.43 23.77 36.81 24.57 38.98 25.10 C 40.80 29.05 39.34 33.73 39.80 37.97 C 43.39 38.00 46.98 38.00 50.57 37.99 C 50.98 38.42 51.81 39.27 52.22 39.70 C 51.90 41.92 53.42 45.88 49.96 46.04 C 46.58 46.37 43.18 46.11 39.79 46.16 C 39.74 50.00 39.92 53.85 39.78 57.69 C 38.29 60.41 34.58 58.72 32.10 58.92 C 31.87 54.67 32.01 50.42 31.98 46.16 C 28.35 46.11 24.71 46.35 21.09 46.07 C 19.03 44.72 19.86 42.06 19.67 40.02 C 20.05 39.51 20.82 38.50 21.21 38.00 C 24.80 37.99 28.39 37.99 31.98 37.98 C 32.03 34.01 31.81 30.03 32.06 26.06 Z" />
<path fill="#172326" opacity="1.00" d=" M 63.33 38.50 L 64.05 38.05 C 72.57 37.96 81.10 37.93 89.62 38.06 C 91.79 39.78 91.76 44.21 89.85 46.08 C 81.90 46.33 73.93 46.11 65.97 46.18 C 61.75 46.90 61.51 40.63 63.33 38.50 Z" />
<path fill="#172326" opacity="1.00" d=" M 20.87 71.92 C 23.96 70.17 27.63 71.12 31.00 70.90 C 37.17 71.12 43.40 70.43 49.52 71.34 C 50.62 74.79 50.05 78.45 50.17 82.01 C 50.07 86.66 50.37 91.33 50.04 95.97 C 49.29 96.94 48.23 97.73 46.94 97.62 C 39.31 97.73 31.66 97.66 24.03 97.66 C 22.04 97.81 20.42 96.02 20.67 94.05 C 20.75 86.67 20.56 79.29 20.87 71.92 M 28.55 78.51 C 28.56 82.33 28.56 86.15 28.55 89.97 C 33.11 89.98 37.67 89.98 42.24 89.97 C 42.13 86.21 42.30 82.44 42.16 78.68 C 37.68 78.17 33.08 78.64 28.55 78.51 Z" />
<path fill="#172326" opacity="1.00" d=" M 62.23 73.93 C 62.09 72.36 63.31 70.81 64.96 70.92 C 72.00 70.86 79.04 70.92 86.08 70.90 C 87.58 70.70 88.86 71.44 90.09 72.18 C 90.27 78.76 90.15 85.34 90.20 91.93 C 89.98 93.41 90.62 95.33 89.39 96.47 C 88.42 97.93 86.56 97.60 85.07 97.69 C 78.71 97.63 72.35 97.70 65.99 97.64 C 64.27 97.71 62.14 96.94 62.25 94.87 C 62.06 87.90 62.13 80.90 62.23 73.93 M 69.88 78.42 C 69.91 82.27 69.92 86.12 69.87 89.97 C 73.93 89.99 78.00 89.99 82.07 89.97 C 82.07 86.13 82.08 82.29 82.03 78.45 C 77.98 78.50 73.93 78.54 69.88 78.42 Z" />
<path fill="#172326" opacity="1.00" d=" M 22.29 104.06 C 30.86 103.89 39.44 104.03 48.02 103.99 C 49.78 103.56 51.21 105.31 51.09 106.96 C 51.27 112.31 51.22 117.66 51.15 123.01 C 51.20 124.68 49.73 126.45 47.98 126.36 C 39.97 126.39 31.96 126.44 23.95 126.35 C 22.10 126.57 20.52 124.82 20.78 123.01 C 20.89 117.11 20.59 111.19 20.92 105.30 C 21.26 104.99 21.95 104.37 22.29 104.06 M 28.60 111.81 C 28.59 114.04 28.58 116.27 28.59 118.50 C 33.52 118.48 38.45 118.44 43.37 118.54 C 43.38 116.30 43.38 114.05 43.38 111.81 C 38.45 111.81 33.52 111.81 28.60 111.81 Z" />
<path fill="#172326" opacity="1.00" d=" M 62.40 107.01 C 62.18 105.57 63.28 103.82 64.87 103.99 C 72.84 103.94 80.81 104.07 88.78 103.94 C 91.11 106.04 90.09 109.28 90.29 112.02 C 90.14 116.20 90.57 120.41 90.06 124.56 C 89.09 126.51 86.84 126.47 84.98 126.42 C 78.66 126.35 72.33 126.43 66.00 126.36 C 64.17 126.54 62.05 125.04 62.37 123.06 C 62.32 117.71 62.32 112.36 62.40 107.01 M 70.07 111.82 C 70.06 114.06 70.05 116.30 70.05 118.55 C 74.04 118.47 78.03 118.46 82.02 118.53 C 82.07 116.29 82.09 114.05 82.10 111.82 C 78.09 111.81 74.08 111.81 70.07 111.82 Z" />
</g>
</svg>
