<?xml version="1.0" encoding="UTF-8" ?>
<!DOCTYPE svg PUBLIC "-//W3C//DTD SVG 1.1//EN" "http://www.w3.org/Graphics/SVG/1.1/DTD/svg11.dtd">
<svg width="128pt" height="138pt" viewBox="0 0 128 138" version="1.1" xmlns="http://www.w3.org/2000/svg">
<g id="#fcfbf6ff">
</g>
<g id="#182427ff">
<path fill="#182427" opacity="1.00" d=" M 61.20 1.16 C 63.95 0.05 67.20 0.78 69.69 2.26 C 87.05 12.28 104.53 22.08 121.94 32.01 C 124.16 33.35 126.99 35.00 126.92 37.97 C 127.02 57.32 126.62 76.67 127.20 96.01 C 127.46 100.08 124.64 103.48 121.19 105.26 C 103.49 115.58 85.64 125.66 67.90 135.93 C 63.14 138.62 58.66 134.54 54.60 132.45 C 39.24 123.36 23.49 114.95 8.15 105.83 C 4.75 104.03 1.58 101.08 1.17 97.05 C 1.13 77.38 1.26 57.71 1.23 38.05 C 1.15 35.17 3.78 33.37 6.03 32.17 C 24.46 21.90 42.77 11.42 61.20 1.16 M 14.23 36.66 C 14.25 36.86 14.29 37.26 14.31 37.46 C 31.07 46.56 47.63 56.09 64.10 65.72 C 81.11 56.92 97.28 46.57 114.16 37.52 C 113.63 36.86 112.99 36.31 112.24 35.90 C 100.11 28.95 87.91 22.12 75.78 15.16 C 71.90 13.09 68.29 10.33 64.09 8.96 C 47.36 17.98 31.09 27.88 14.23 36.66 M 9.37 43.99 C 9.53 61.52 9.29 79.06 9.48 96.58 C 10.87 98.33 13.10 99.09 14.95 100.23 C 26.04 106.76 37.31 112.99 48.36 119.58 C 52.36 121.81 56.16 124.39 60.32 126.31 C 60.52 108.52 60.37 90.72 60.39 72.92 C 43.41 63.22 26.60 53.21 9.37 43.99 M 71.28 71.21 C 70.23 72.01 68.20 72.44 68.35 74.11 C 68.25 91.42 68.36 108.74 68.31 126.06 C 71.93 124.71 75.02 122.32 78.40 120.51 C 91.85 112.56 105.65 105.19 118.93 96.96 C 118.90 79.29 118.81 61.61 118.93 43.94 C 103.03 53.00 87.22 62.21 71.28 71.21 Z" />
</g>
<g id="#fea426ff">
<path fill="#fea426" opacity="1.00" d=" M 14.23 36.66 C 31.09 27.88 47.36 17.98 64.09 8.96 C 68.29 10.33 71.90 13.09 75.78 15.16 C 87.91 22.12 100.11 28.95 112.24 35.90 C 112.99 36.31 113.63 36.86 114.16 37.52 C 97.28 46.57 81.11 56.92 64.10 65.72 C 47.63 56.09 31.07 46.56 14.31 37.46 C 14.29 37.26 14.25 36.86 14.23 36.66 Z" />
<path fill="#fea426" opacity="1.00" d=" M 9.37 43.99 C 26.60 53.21 43.41 63.22 60.39 72.92 C 60.37 90.72 60.52 108.52 60.32 126.31 C 56.16 124.39 52.36 121.81 48.36 119.58 C 37.31 112.99 26.04 106.76 14.95 100.23 C 13.10 99.09 10.87 98.33 9.48 96.58 C 9.29 79.06 9.53 61.52 9.37 43.99 Z" />
<path fill="#fea426" opacity="1.00" d=" M 71.28 71.21 C 87.22 62.21 103.03 53.00 118.93 43.94 C 118.81 61.61 118.90 79.29 118.93 96.96 C 105.65 105.19 91.85 112.56 78.40 120.51 C 75.02 122.32 71.93 124.71 68.31 126.06 C 68.36 108.74 68.25 91.42 68.35 74.11 C 68.20 72.44 70.23 72.01 71.28 71.21 Z" />
</g>
</svg>
