<?xml version="1.0" encoding="UTF-8" ?>
<!DOCTYPE svg PUBLIC "-//W3C//DTD SVG 1.1//EN" "http://www.w3.org/Graphics/SVG/1.1/DTD/svg11.dtd">
<svg width="139pt" height="148pt" viewBox="0 0 139 148" version="1.1" xmlns="http://www.w3.org/2000/svg">
<g id="#fcfaf4ff">
</g>
<g id="#152324ff">
<path fill="#152324" opacity="1.00" d=" M 27.49 0.00 L 112.52 0.00 C 119.21 0.85 125.74 3.56 130.40 8.54 C 135.77 13.83 138.49 21.48 138.36 28.95 C 138.34 52.64 138.32 76.33 138.34 100.03 C 138.43 107.88 134.98 115.84 128.86 120.85 C 126.21 123.13 123.12 124.78 120.00 126.32 C 120.05 132.52 119.96 138.73 120.05 144.94 C 118.08 147.31 114.52 147.88 112.03 145.95 C 103.03 140.02 94.07 134.03 85.00 128.20 C 83.85 127.32 82.42 127.16 81.03 127.20 C 63.68 127.26 46.33 127.19 28.98 127.25 C 19.38 127.50 9.70 122.59 4.56 114.42 C 2.13 110.86 0.97 106.66 0.00 102.51 L 0.00 23.76 C 1.78 17.66 4.37 11.52 9.39 7.36 C 14.25 2.66 21.02 1.05 27.49 0.00 M 13.96 15.91 C 10.49 20.07 9.54 25.66 9.25 30.91 C 9.13 52.61 9.26 74.31 9.18 96.01 C 9.52 101.04 10.35 106.37 13.49 110.49 C 17.27 115.59 23.81 118.18 30.04 118.21 C 48.92 118.32 67.82 118.13 86.70 118.31 C 94.97 122.95 102.63 128.75 110.85 133.53 C 110.85 128.72 110.86 123.91 110.87 119.10 C 115.02 117.88 119.18 116.29 122.58 113.53 C 126.30 110.53 128.64 105.84 128.70 101.05 C 128.48 76.72 128.79 52.39 128.54 28.06 C 128.62 21.43 125.08 14.95 119.21 11.78 C 114.66 8.95 109.12 9.22 103.97 9.20 C 79.65 9.25 55.32 9.17 30.99 9.23 C 24.76 9.14 18.15 11.09 13.96 15.91 Z" />
<path fill="#152324" opacity="1.00" d=" M 35.59 35.00 C 35.17 32.93 37.54 32.58 39.01 32.74 C 44.03 32.82 49.06 32.61 54.08 32.83 C 55.19 33.49 55.52 34.84 56.12 35.90 C 60.53 45.34 65.24 54.65 69.47 64.18 C 71.41 62.36 71.95 59.57 73.27 57.33 C 77.55 49.15 81.06 40.53 85.89 32.66 C 91.57 32.99 97.29 32.44 102.96 32.95 C 104.65 33.58 104.03 35.68 104.21 37.05 C 104.09 56.39 104.26 75.74 104.14 95.07 C 104.33 97.27 101.51 97.13 100.06 97.15 C 96.82 96.94 93.42 97.66 90.31 96.58 C 89.45 95.21 89.92 93.46 89.77 91.94 C 89.80 79.54 89.78 67.14 89.80 54.74 C 84.47 65.37 78.96 75.95 73.42 86.46 C 71.32 87.93 66.70 88.36 65.63 85.35 C 60.50 75.18 55.09 65.14 50.17 54.87 C 49.82 68.54 50.05 82.23 50.04 95.90 C 47.51 98.08 44.00 96.83 40.97 97.14 C 39.13 96.99 35.69 97.86 35.61 95.04 C 35.60 75.03 35.62 55.01 35.59 35.00 Z" />
</g>
<g id="#fda72eff">
<path fill="#fda72e" opacity="1.00" d=" M 13.96 15.91 C 18.15 11.09 24.76 9.14 30.99 9.23 C 55.32 9.17 79.65 9.25 103.97 9.20 C 109.12 9.22 114.66 8.95 119.21 11.78 C 125.08 14.95 128.62 21.43 128.54 28.06 C 128.79 52.39 128.48 76.72 128.70 101.05 C 128.64 105.84 126.30 110.53 122.58 113.53 C 119.18 116.29 115.02 117.88 110.87 119.10 C 110.86 123.91 110.85 128.72 110.85 133.53 C 102.63 128.75 94.97 122.95 86.70 118.31 C 67.82 118.13 48.92 118.32 30.04 118.21 C 23.81 118.18 17.27 115.59 13.49 110.49 C 10.35 106.37 9.52 101.04 9.18 96.01 C 9.26 74.31 9.13 52.61 9.25 30.91 C 9.54 25.66 10.49 20.07 13.96 15.91 M 35.59 35.00 C 35.62 55.01 35.60 75.03 35.61 95.04 C 35.69 97.86 39.13 96.99 40.97 97.14 C 44.00 96.83 47.51 98.08 50.04 95.90 C 50.05 82.23 49.82 68.54 50.17 54.87 C 55.09 65.14 60.50 75.18 65.63 85.35 C 66.70 88.36 71.32 87.93 73.42 86.46 C 78.96 75.95 84.47 65.37 89.80 54.74 C 89.78 67.14 89.80 79.54 89.77 91.94 C 89.92 93.46 89.45 95.21 90.31 96.58 C 93.42 97.66 96.82 96.94 100.06 97.15 C 101.51 97.13 104.33 97.27 104.14 95.07 C 104.26 75.74 104.09 56.39 104.21 37.05 C 104.03 35.68 104.65 33.58 102.96 32.95 C 97.29 32.44 91.57 32.99 85.89 32.66 C 81.06 40.53 77.55 49.15 73.27 57.33 C 71.95 59.57 71.41 62.36 69.47 64.18 C 65.24 54.65 60.53 45.34 56.12 35.90 C 55.52 34.84 55.19 33.49 54.08 32.83 C 49.06 32.61 44.03 32.82 39.01 32.74 C 37.54 32.58 35.17 32.93 35.59 35.00 Z" />
</g>
</svg>
