<?xml version="1.0" encoding="UTF-8" ?>
<!DOCTYPE svg PUBLIC "-//W3C//DTD SVG 1.1//EN" "http://www.w3.org/Graphics/SVG/1.1/DTD/svg11.dtd">
<svg width="120pt" height="146pt" viewBox="0 0 120 146" version="1.1" xmlns="http://www.w3.org/2000/svg">
<g id="#fcfbf6ff">
<path fill="#fcfbf6" opacity="1.00" d=" M 9.01 20.99 C 8.62 14.79 13.62 8.50 20.06 8.57 C 46.35 8.52 72.64 8.51 98.92 8.56 C 105.16 8.40 110.83 13.70 110.95 19.95 C 111.05 32.99 111.01 46.03 110.97 59.06 C 111.26 64.92 106.83 70.79 100.89 71.43 C 90.23 71.78 79.54 71.10 68.89 71.79 C 68.65 74.25 68.65 76.72 68.81 79.18 C 70.49 79.70 72.24 79.93 74.00 79.87 C 83.01 79.81 92.03 79.87 101.04 79.85 C 103.34 79.97 105.43 78.87 107.51 78.05 C 107.17 93.67 107.56 109.30 107.35 124.91 C 107.40 131.12 102.28 136.68 96.06 136.96 C 71.02 137.01 45.97 136.96 20.93 136.98 C 14.59 137.07 8.69 131.46 8.99 125.00 C 8.55 90.33 9.21 55.66 9.01 20.99 M 70.15 29.30 C 68.84 31.52 69.86 33.88 71.75 35.34 C 73.95 35.27 76.89 35.52 77.76 32.92 C 79.26 28.23 85.67 26.31 89.55 29.28 C 91.60 30.66 92.01 33.69 90.76 35.74 C 89.03 38.99 85.04 40.02 82.94 42.96 C 81.30 45.24 79.97 48.22 81.04 51.02 C 82.36 53.25 85.52 53.31 87.67 52.44 C 89.10 50.80 89.05 48.19 90.95 46.89 C 94.27 44.30 98.01 41.69 99.38 37.50 C 100.42 33.04 99.94 27.83 96.49 24.49 C 89.36 16.24 73.88 18.96 70.15 29.30 M 20.85 33.90 C 20.42 36.32 20.44 38.79 20.62 41.25 C 25.70 42.03 30.86 41.53 35.97 41.66 C 42.70 41.46 49.47 42.11 56.16 41.27 C 56.12 38.80 57.59 34.41 54.09 33.86 C 43.01 33.72 31.93 33.66 20.85 33.90 M 83.11 57.09 C 81.38 58.25 79.89 60.32 80.55 62.51 C 81.38 65.83 86.03 67.28 88.42 64.63 C 91.42 61.18 87.55 55.06 83.11 57.09 M 28.80 62.87 C 28.76 65.78 28.73 68.69 28.73 71.60 C 25.90 71.59 23.05 71.39 20.22 71.70 C 18.38 73.01 18.65 75.89 19.40 77.72 C 22.27 78.94 25.71 78.02 28.80 78.30 C 28.77 80.99 28.76 83.67 28.77 86.36 C 29.12 86.79 29.83 87.67 30.18 88.11 C 31.85 87.94 33.98 88.50 35.00 86.73 C 35.62 83.96 35.29 81.10 35.33 78.29 C 38.08 78.28 40.84 78.38 43.59 78.20 C 45.43 76.67 44.89 73.53 43.68 71.75 C 40.92 71.40 38.13 71.58 35.36 71.61 C 35.37 68.74 35.34 65.86 35.24 62.99 C 33.14 62.20 30.92 62.09 28.80 62.87 M 20.63 99.56 C 18.88 103.07 20.03 107.20 19.72 110.98 C 20.11 115.31 18.65 120.10 20.97 124.05 C 27.61 123.98 34.26 123.96 40.90 124.06 C 41.56 123.08 42.72 122.24 42.66 120.92 C 42.88 114.94 42.72 108.94 42.73 102.95 C 42.82 101.24 42.15 98.90 39.97 99.22 C 33.54 99.31 26.99 98.64 20.63 99.56 M 53.20 99.19 C 50.55 100.52 50.76 106.43 54.25 106.56 C 58.33 106.71 62.45 106.80 66.52 106.44 C 70.13 105.25 69.23 98.37 65.12 98.91 C 61.15 98.95 57.13 98.58 53.20 99.19 M 78.90 100.33 C 79.07 102.39 78.00 105.47 80.61 106.32 C 84.92 107.01 89.39 106.62 93.76 106.56 C 97.14 105.85 95.91 101.76 95.36 99.38 C 90.59 98.62 85.76 98.94 80.96 98.92 C 80.44 99.27 79.41 99.98 78.90 100.33 M 52.79 116.62 C 50.71 118.50 51.41 122.05 53.05 124.06 C 57.76 123.97 62.47 123.98 67.18 124.05 C 69.13 122.05 69.72 117.47 66.64 116.42 C 62.04 116.35 57.34 115.98 52.79 116.62 M 80.36 116.50 C 77.98 118.16 77.99 122.91 80.96 123.93 C 85.59 124.16 90.24 123.91 94.88 124.05 C 96.15 121.78 96.86 118.38 94.62 116.47 C 89.88 116.22 85.09 116.17 80.36 116.50 Z" />
<path fill="#fcfbf6" opacity="1.00" d=" M 27.32 106.63 C 29.90 106.68 32.49 106.67 35.07 106.60 C 35.08 109.93 35.08 113.25 35.09 116.58 C 32.51 116.55 29.94 116.55 27.36 116.59 C 27.36 113.27 27.36 109.95 27.32 106.63 Z" />
</g>
<g id="#172326ff">
<path fill="#172326" opacity="1.00" d=" M 23.27 0.00 L 98.54 0.00 C 102.08 0.70 105.87 0.98 109.01 2.94 C 115.02 6.34 119.41 12.95 119.20 19.99 C 119.12 34.01 119.30 48.05 119.13 62.07 C 119.29 66.43 115.46 69.67 115.55 73.97 C 115.48 91.26 115.75 108.56 115.49 125.85 C 115.42 136.07 106.24 145.06 96.05 145.03 C 70.67 145.00 45.29 145.04 19.92 145.01 C 10.33 144.90 1.48 136.72 0.97 127.08 C 0.25 116.40 0.74 105.68 0.54 94.98 C 0.91 69.99 1.09 45.00 0.97 20.01 C 0.70 13.93 3.67 8.01 8.43 4.31 C 12.53 0.79 18.10 0.26 23.27 0.00 M 9.01 20.99 C 9.21 55.66 8.55 90.33 8.99 125.00 C 8.69 131.46 14.59 137.07 20.93 136.98 C 45.97 136.96 71.02 137.01 96.06 136.96 C 102.28 136.68 107.40 131.12 107.35 124.91 C 107.56 109.30 107.17 93.67 107.51 78.05 C 105.43 78.87 103.34 79.97 101.04 79.85 C 92.03 79.87 83.01 79.81 74.00 79.87 C 72.24 79.93 70.49 79.70 68.81 79.18 C 68.65 76.72 68.65 74.25 68.89 71.79 C 79.54 71.10 90.23 71.78 100.89 71.43 C 106.83 70.79 111.26 64.92 110.97 59.06 C 111.01 46.03 111.05 32.99 110.95 19.95 C 110.83 13.70 105.16 8.40 98.92 8.56 C 72.64 8.51 46.35 8.52 20.06 8.57 C 13.62 8.50 8.62 14.79 9.01 20.99 Z" />
<path fill="#172326" opacity="1.00" d=" M 70.15 29.30 C 73.88 18.96 89.36 16.24 96.49 24.49 C 99.94 27.83 100.42 33.04 99.38 37.50 C 98.01 41.69 94.27 44.30 90.95 46.89 C 89.05 48.19 89.10 50.80 87.67 52.44 C 85.52 53.31 82.36 53.25 81.04 51.02 C 79.97 48.22 81.30 45.24 82.94 42.96 C 85.04 40.02 89.03 38.99 90.76 35.74 C 92.01 33.69 91.60 30.66 89.55 29.28 C 85.67 26.31 79.26 28.23 77.76 32.92 C 76.89 35.52 73.95 35.27 71.75 35.34 C 69.86 33.88 68.84 31.52 70.15 29.30 Z" />
<path fill="#172326" opacity="1.00" d=" M 20.85 33.90 C 31.93 33.66 43.01 33.72 54.09 33.86 C 57.59 34.41 56.12 38.80 56.16 41.27 C 49.47 42.11 42.70 41.46 35.97 41.66 C 30.86 41.53 25.70 42.03 20.62 41.25 C 20.44 38.79 20.42 36.32 20.85 33.90 Z" />
<path fill="#172326" opacity="1.00" d=" M 83.11 57.09 C 87.55 55.06 91.42 61.18 88.42 64.63 C 86.03 67.28 81.38 65.83 80.55 62.51 C 79.89 60.32 81.38 58.25 83.11 57.09 Z" />
<path fill="#172326" opacity="1.00" d=" M 28.80 62.87 C 30.92 62.09 33.14 62.20 35.24 62.99 C 35.34 65.86 35.37 68.74 35.36 71.61 C 38.13 71.58 40.92 71.40 43.68 71.75 C 44.89 73.53 45.43 76.67 43.59 78.20 C 40.84 78.38 38.08 78.28 35.33 78.29 C 35.29 81.10 35.62 83.96 35.00 86.73 C 33.98 88.50 31.85 87.94 30.18 88.11 C 29.83 87.67 29.12 86.79 28.77 86.36 C 28.76 83.67 28.77 80.99 28.80 78.30 C 25.71 78.02 22.27 78.94 19.40 77.72 C 18.65 75.89 18.38 73.01 20.22 71.70 C 23.05 71.39 25.90 71.59 28.73 71.60 C 28.73 68.69 28.76 65.78 28.80 62.87 Z" />
<path fill="#172326" opacity="1.00" d=" M 20.63 99.56 C 26.99 98.64 33.54 99.31 39.97 99.22 C 42.15 98.90 42.82 101.24 42.73 102.95 C 42.72 108.94 42.88 114.94 42.66 120.92 C 42.72 122.24 41.56 123.08 40.90 124.06 C 34.26 123.96 27.61 123.98 20.97 124.05 C 18.65 120.10 20.11 115.31 19.72 110.98 C 20.03 107.20 18.88 103.07 20.63 99.56 M 27.32 106.63 C 27.36 109.95 27.36 113.27 27.36 116.59 C 29.94 116.55 32.51 116.55 35.09 116.58 C 35.08 113.25 35.08 109.93 35.07 106.60 C 32.49 106.67 29.90 106.68 27.32 106.63 Z" />
<path fill="#172326" opacity="1.00" d=" M 53.20 99.19 C 57.13 98.58 61.15 98.95 65.12 98.91 C 69.23 98.37 70.13 105.25 66.52 106.44 C 62.45 106.80 58.33 106.71 54.25 106.56 C 50.76 106.43 50.55 100.52 53.20 99.19 Z" />
<path fill="#172326" opacity="1.00" d=" M 78.90 100.33 C 79.41 99.98 80.44 99.27 80.96 98.92 C 85.76 98.94 90.59 98.62 95.36 99.38 C 95.91 101.76 97.14 105.85 93.76 106.56 C 89.39 106.62 84.92 107.01 80.61 106.32 C 78.00 105.47 79.07 102.39 78.90 100.33 Z" />
<path fill="#172326" opacity="1.00" d=" M 52.79 116.62 C 57.34 115.98 62.04 116.35 66.64 116.42 C 69.72 117.47 69.13 122.05 67.18 124.05 C 62.47 123.98 57.76 123.97 53.05 124.06 C 51.41 122.05 50.71 118.50 52.79 116.62 Z" />
<path fill="#172326" opacity="1.00" d=" M 80.36 116.50 C 85.09 116.17 89.88 116.22 94.62 116.47 C 96.86 118.38 96.15 121.78 94.88 124.05 C 90.24 123.91 85.59 124.16 80.96 123.93 C 77.99 122.91 77.98 118.16 80.36 116.50 Z" />
</g>
</svg>
