<?xml version="1.0" encoding="UTF-8" ?>
<!DOCTYPE svg PUBLIC "-//W3C//DTD SVG 1.1//EN" "http://www.w3.org/Graphics/SVG/1.1/DTD/svg11.dtd">
<svg width="159pt" height="56pt" viewBox="0 0 159 56" version="1.1" xmlns="http://www.w3.org/2000/svg">
<g id="#fcfaf5ff">
</g>
<g id="#182427ff">
<path fill="#182427" opacity="1.00" d=" M 0.60 9.06 C 0.43 5.44 2.91 2.32 6.23 1.13 C 10.59 2.94 15.37 2.12 19.95 2.20 C 59.63 2.23 99.30 2.21 138.98 2.21 C 143.85 2.17 148.83 2.74 153.57 1.26 C 155.87 2.26 157.54 4.14 159.00 6.12 L 159.00 6.74 C 158.09 8.34 157.58 10.13 157.85 11.98 C 158.52 24.75 157.52 37.56 158.46 50.31 C 157.58 52.01 156.34 53.51 154.76 54.60 C 148.55 53.69 142.27 54.11 136.02 54.05 C 96.02 54.00 56.01 54.08 16.01 54.03 C 12.08 53.96 8.15 54.08 4.23 54.45 C 1.99 53.10 0.83 50.74 0.24 48.26 C 0.82 35.21 0.16 22.12 0.60 9.06 M 8.79 9.11 C 8.83 21.82 8.74 34.53 8.79 47.23 C 56.02 47.26 103.25 47.23 150.49 47.25 C 150.51 34.54 150.49 21.84 150.49 9.14 C 145.92 9.18 141.34 9.17 136.77 9.11 C 136.77 12.39 136.96 15.68 136.78 18.95 C 136.53 22.58 130.52 22.92 128.99 20.08 C 128.65 16.45 128.89 12.79 128.83 9.15 C 124.55 9.17 120.28 9.16 116.01 9.16 C 115.91 14.46 116.18 19.77 115.91 25.06 C 114.62 27.91 110.37 27.92 108.33 25.85 C 107.75 20.32 108.26 14.73 108.09 9.18 C 103.74 9.17 99.40 9.16 95.06 9.17 C 95.17 13.13 95.13 17.09 94.90 21.04 C 92.91 21.54 90.84 21.65 88.79 21.59 C 88.35 21.08 87.45 20.06 87.00 19.55 C 87.00 16.09 87.00 12.63 86.99 9.17 C 82.69 9.13 78.39 9.15 74.09 9.16 C 74.07 13.79 74.16 18.41 74.11 23.04 C 74.23 24.46 73.61 25.72 72.94 26.91 C 72.21 27.13 70.74 27.55 70.00 27.76 C 68.52 27.14 67.09 26.39 65.92 25.27 C 66.08 19.90 65.96 14.53 66.00 9.15 C 61.72 9.16 57.44 9.16 53.16 9.14 C 53.11 12.77 53.54 16.43 52.99 20.04 C 51.90 22.55 48.08 22.17 46.18 20.79 C 44.94 17.09 45.75 12.99 45.54 9.13 C 41.26 9.16 36.99 9.16 32.71 9.13 C 32.78 14.07 32.84 19.02 32.60 23.95 C 32.59 28.27 24.46 28.49 24.69 24.03 C 24.56 19.06 24.70 14.09 24.69 9.13 C 19.39 9.15 14.09 9.17 8.79 9.11 Z" />
</g>
<g id="#061312ff">
<path fill="#061312" opacity="1.00" d=" M 6.23 1.13 C 52.81 0.81 99.41 1.12 146.00 0.98 C 148.53 0.97 151.06 0.97 153.57 1.26 C 148.83 2.74 143.85 2.17 138.98 2.21 C 99.30 2.21 59.63 2.23 19.95 2.20 C 15.37 2.12 10.59 2.94 6.23 1.13 Z" />
</g>
<g id="#414241ff">
<path fill="#414241" opacity="1.00" d=" M 157.85 11.98 C 157.58 10.13 158.09 8.34 159.00 6.74 L 159.00 48.52 L 158.46 50.31 C 157.52 37.56 158.52 24.75 157.85 11.98 Z" />
</g>
<g id="#fea120ff">
<path fill="#fea120" opacity="1.00" d=" M 8.79 9.11 C 14.09 9.17 19.39 9.15 24.69 9.13 C 24.70 14.09 24.56 19.06 24.69 24.03 C 24.46 28.49 32.59 28.27 32.60 23.95 C 32.84 19.02 32.78 14.07 32.71 9.13 C 36.99 9.16 41.26 9.16 45.54 9.13 C 45.75 12.99 44.94 17.09 46.18 20.79 C 48.08 22.17 51.90 22.55 52.99 20.04 C 53.54 16.43 53.11 12.77 53.16 9.14 C 57.44 9.16 61.72 9.16 66.00 9.15 C 65.96 14.53 66.08 19.90 65.92 25.27 C 67.09 26.39 68.52 27.14 70.00 27.76 C 70.74 27.55 72.21 27.13 72.94 26.91 C 73.61 25.72 74.23 24.46 74.11 23.04 C 74.16 18.41 74.07 13.79 74.09 9.16 C 78.39 9.15 82.69 9.13 86.99 9.17 C 87.00 12.63 87.00 16.09 87.00 19.55 C 87.45 20.06 88.35 21.08 88.79 21.59 C 90.84 21.65 92.91 21.54 94.90 21.04 C 95.13 17.09 95.17 13.13 95.06 9.17 C 99.40 9.16 103.74 9.17 108.09 9.18 C 108.26 14.73 107.75 20.32 108.33 25.85 C 110.37 27.92 114.62 27.91 115.91 25.06 C 116.18 19.77 115.91 14.46 116.01 9.16 C 120.28 9.16 124.55 9.17 128.83 9.15 C 128.89 12.79 128.65 16.45 128.99 20.08 C 130.52 22.92 136.53 22.58 136.78 18.95 C 136.96 15.68 136.77 12.39 136.77 9.11 C 141.34 9.17 145.92 9.18 150.49 9.14 C 150.49 21.84 150.51 34.54 150.49 47.25 C 103.25 47.23 56.02 47.26 8.79 47.23 C 8.74 34.53 8.83 21.82 8.79 9.11 Z" />
</g>
<g id="#fcfbf5ff">
</g>
<g id="#020506ff">
<path fill="#020506" opacity="1.00" d=" M 4.23 54.45 C 8.15 54.08 12.08 53.96 16.01 54.03 C 56.01 54.08 96.02 54.00 136.02 54.05 C 142.27 54.11 148.55 53.69 154.76 54.60 L 153.90 55.09 C 107.29 54.88 60.68 55.08 14.07 54.98 C 11.72 54.97 9.38 55.05 7.05 55.29 C 6.34 55.08 4.94 54.66 4.23 54.45 Z" />
</g>
<g id="#7c8684ff">
<path fill="#7c8684" opacity="1.00" d=" M 7.05 55.29 C 9.38 55.05 11.72 54.97 14.07 54.98 C 60.68 55.08 107.29 54.88 153.90 55.09 L 152.31 56.00 L 5.57 56.00 L 7.05 55.29 Z" />
</g>
</svg>
