<?xml version="1.0" encoding="UTF-8" ?>
<!DOCTYPE svg PUBLIC "-//W3C//DTD SVG 1.1//EN" "http://www.w3.org/Graphics/SVG/1.1/DTD/svg11.dtd">
<svg width="136pt" height="127pt" viewBox="0 0 136 127" version="1.1" xmlns="http://www.w3.org/2000/svg">
<g id="#fcfaf6ff">
<path fill="#fcfaf6" opacity="1.00" d=" M 12.29 23.15 C 15.08 21.96 18.16 22.96 21.06 23.04 C 28.94 24.34 36.94 24.54 44.88 25.28 C 51.55 26.39 58.33 26.56 65.05 27.29 C 74.32 28.60 83.68 29.01 92.98 30.04 C 96.06 30.41 100.10 29.99 101.90 33.10 C 103.20 34.77 102.75 37.04 102.91 39.01 C 102.84 62.67 102.89 86.34 102.84 110.00 C 102.80 111.83 102.91 114.02 101.29 115.27 C 98.89 117.83 95.09 117.27 91.96 116.99 C 70.27 114.71 48.58 112.34 26.93 109.78 C 21.70 109.22 15.43 109.77 11.56 105.50 C 10.21 103.97 9.06 102.13 9.24 100.01 C 9.15 76.32 9.22 52.62 9.21 28.93 C 8.97 26.56 10.30 24.36 12.29 23.15 M 33.24 44.29 C 24.61 47.74 25.61 63.08 34.99 64.84 C 40.95 64.90 44.71 58.25 43.73 52.83 C 43.46 47.81 38.48 42.60 33.24 44.29 M 70.24 48.20 C 65.17 51.18 64.69 58.27 66.70 63.24 C 68.56 67.82 74.72 69.48 78.83 67.00 C 82.70 63.94 82.76 58.43 81.97 53.99 C 80.97 48.87 74.91 45.91 70.24 48.20 M 30.16 79.05 C 27.55 80.11 27.27 83.79 29.14 85.67 C 37.22 94.72 50.20 98.91 62.09 96.87 C 69.03 95.61 75.37 92.09 80.72 87.59 C 83.73 84.43 79.80 78.43 75.86 80.84 C 70.38 85.63 63.49 89.45 55.98 89.01 C 48.05 89.49 40.37 85.75 34.95 80.11 C 33.83 78.77 31.73 78.11 30.16 79.05 Z" />
</g>
<g id="#172326ff">
<path fill="#172326" opacity="1.00" d=" M 32.51 1.67 C 35.88 0.41 39.57 1.25 43.06 1.35 C 55.99 2.77 69.01 3.24 81.93 4.82 C 95.32 5.38 108.60 7.19 121.98 7.99 C 129.16 8.21 134.86 14.92 134.77 21.94 C 134.74 46.31 134.61 70.68 134.61 95.05 C 134.48 99.12 133.70 103.69 130.23 106.29 C 123.12 111.52 115.72 116.35 108.48 121.40 C 105.68 123.41 102.53 125.22 98.97 125.21 C 90.26 125.48 81.60 124.14 72.98 123.06 C 62.93 122.36 53.01 120.67 42.96 119.98 C 33.39 118.28 23.58 118.43 14.07 116.33 C 8.32 114.63 3.62 109.91 1.82 104.21 C 0.40 100.64 0.96 96.74 0.89 93.00 C 0.84 71.68 0.93 50.35 0.82 29.03 C 1.14 22.90 4.85 17.12 10.32 14.29 C 17.73 10.12 24.99 5.64 32.51 1.67 M 25.74 15.66 C 50.22 17.59 74.66 20.14 99.11 22.41 C 102.19 22.57 104.69 24.57 107.10 26.29 C 112.41 23.03 117.88 20.00 122.96 16.39 C 100.60 14.50 78.26 12.49 55.88 10.87 C 49.31 10.08 42.69 9.52 36.07 9.50 C 32.36 10.95 28.79 13.08 25.74 15.66 M 12.29 23.15 C 10.30 24.36 8.97 26.56 9.21 28.93 C 9.22 52.62 9.15 76.32 9.24 100.01 C 9.06 102.13 10.21 103.97 11.56 105.50 C 15.43 109.77 21.70 109.22 26.93 109.78 C 48.58 112.34 70.27 114.71 91.96 116.99 C 95.09 117.27 98.89 117.83 101.29 115.27 C 102.91 114.02 102.80 111.83 102.84 110.00 C 102.89 86.34 102.84 62.67 102.91 39.01 C 102.75 37.04 103.20 34.77 101.90 33.10 C 100.10 29.99 96.06 30.41 92.98 30.04 C 83.68 29.01 74.32 28.60 65.05 27.29 C 58.33 26.56 51.55 26.39 44.88 25.28 C 36.94 24.54 28.94 24.34 21.06 23.04 C 18.16 22.96 15.08 21.96 12.29 23.15 M 111.14 33.26 C 110.86 58.81 111.09 84.38 111.02 109.94 C 115.69 106.66 120.51 103.55 124.93 99.93 C 126.71 98.92 126.32 96.75 126.41 95.04 C 126.34 71.41 126.43 47.78 126.38 24.15 C 121.04 26.74 116.32 30.39 111.14 33.26 Z" />
<path fill="#172326" opacity="1.00" d=" M 33.24 44.29 C 38.48 42.60 43.46 47.81 43.73 52.83 C 44.71 58.25 40.95 64.90 34.99 64.84 C 25.61 63.08 24.61 47.74 33.24 44.29 Z" />
<path fill="#172326" opacity="1.00" d=" M 70.24 48.20 C 74.91 45.91 80.97 48.87 81.97 53.99 C 82.76 58.43 82.70 63.94 78.83 67.00 C 74.72 69.48 68.56 67.82 66.70 63.24 C 64.69 58.27 65.17 51.18 70.24 48.20 Z" />
<path fill="#172326" opacity="1.00" d=" M 30.16 79.05 C 31.73 78.11 33.83 78.77 34.95 80.11 C 40.37 85.75 48.05 89.49 55.98 89.01 C 63.49 89.45 70.38 85.63 75.86 80.84 C 79.80 78.43 83.73 84.43 80.72 87.59 C 75.37 92.09 69.03 95.61 62.09 96.87 C 50.20 98.91 37.22 94.72 29.14 85.67 C 27.27 83.79 27.55 80.11 30.16 79.05 Z" />
</g>
<g id="#fea221ff">
<path fill="#fea221" opacity="1.00" d=" M 25.74 15.66 C 28.79 13.08 32.36 10.95 36.07 9.50 C 42.69 9.52 49.31 10.08 55.88 10.87 C 78.26 12.49 100.60 14.50 122.96 16.39 C 117.88 20.00 112.41 23.03 107.10 26.29 C 104.69 24.57 102.19 22.57 99.11 22.41 C 74.66 20.14 50.22 17.59 25.74 15.66 Z" />
<path fill="#fea221" opacity="1.00" d=" M 111.14 33.26 C 116.32 30.39 121.04 26.74 126.38 24.15 C 126.43 47.78 126.34 71.41 126.41 95.04 C 126.32 96.75 126.71 98.92 124.93 99.93 C 120.51 103.55 115.69 106.66 111.02 109.94 C 111.09 84.38 110.86 58.81 111.14 33.26 Z" />
</g>
</svg>
